<svg xmlns="http://www.w3.org/2000/svg" xmlns:xlink="http://www.w3.org/1999/xlink" width="1024" zoomAndPan="magnify" viewBox="0 0 768 767.999994" height="1024" preserveAspectRatio="xMidYMid meet" version="1.0"><defs><clipPath id="6d41751a79"><path d="M 94.839844 197 L 648 197 L 648 606 L 94.839844 606 Z M 94.839844 197 " clip-rule="nonzero"/></clipPath><clipPath id="a6344c2673"><path d="M 94.839844 180 L 645 180 L 645 600 L 94.839844 600 Z M 94.839844 180 " clip-rule="nonzero"/></clipPath><clipPath id="9ccfd91b8c"><path d="M 304.554688 277.765625 L 463.554688 277.765625 L 463.554688 515.515625 L 304.554688 515.515625 Z M 304.554688 277.765625 " clip-rule="nonzero"/></clipPath></defs><g clip-path="url(#6d41751a79)"><path fill="#c6c4a3" d="M 196.800781 515.363281 C 158.078125 553.429688 94.851562 599.835938 94.851562 599.835938 C 123.390625 573.730469 220.355469 567.402344 241.992188 570.386719 C 280.578125 585.878906 319.253906 597.832031 330.441406 599.851562 C 421.507812 616.320312 578.957031 604.226562 631.339844 493.714844 C 661.007812 431.136719 647.59375 356.792969 616.574219 306.171875 C 547.179688 192.90625 371.234375 168.292969 254.800781 232.933594 C 186.691406 270.75 123.546875 355.828125 144.886719 450.148438 C 152.136719 482.195312 174.265625 495.585938 196.800781 515.363281 Z M 196.800781 515.363281 " fill-opacity="1" fill-rule="nonzero"/></g><path fill="#fdfcdc" d="M 664.925781 436.699219 C 664.675781 436.699219 664.417969 436.679688 664.160156 436.644531 C 661.300781 436.226562 659.320312 433.566406 659.742188 430.707031 C 662.300781 413.25 662.601562 395.097656 660.628906 376.753906 C 658.773438 359.503906 654.9375 342.308594 649.234375 325.640625 C 643.722656 309.539062 636.609375 294.316406 628.082031 280.402344 C 626.574219 277.941406 627.347656 274.722656 629.8125 273.210938 C 632.277344 271.703125 635.5 272.476562 637.007812 274.941406 C 645.933594 289.507812 653.378906 305.425781 659.136719 322.257812 C 665.09375 339.65625 669.09375 357.617188 671.03125 375.636719 C 673.101562 394.851562 672.785156 413.890625 670.097656 432.226562 C 669.71875 434.824219 667.480469 436.699219 664.925781 436.699219 Z M 664.925781 436.699219 " fill-opacity="1" fill-rule="nonzero"/><path fill="#fdfcdc" d="M 529.601562 193.140625 C 528.855469 193.140625 528.097656 192.980469 527.375 192.640625 C 487.4375 173.84375 441.316406 163.90625 394 163.90625 C 367.453125 163.90625 341.199219 167.023438 315.972656 173.167969 C 313.167969 173.851562 310.335938 172.132812 309.652344 169.328125 C 308.964844 166.519531 310.6875 163.691406 313.492188 163.003906 C 339.53125 156.660156 366.617188 153.445312 394 153.445312 C 442.847656 153.445312 490.507812 163.722656 531.835938 183.175781 C 534.449219 184.410156 535.570312 187.523438 534.339844 190.140625 C 533.449219 192.03125 531.566406 193.140625 529.601562 193.140625 Z M 529.601562 193.140625 " fill-opacity="1" fill-rule="nonzero"/><path fill="#fdfcdc" d="M 133.816406 298.097656 C 132.777344 298.097656 131.734375 297.789062 130.820312 297.148438 C 128.453125 295.492188 127.882812 292.230469 129.539062 289.863281 C 143.769531 269.578125 161.164062 250.351562 181.242188 232.71875 C 183.414062 230.8125 186.71875 231.023438 188.628906 233.195312 C 190.535156 235.367188 190.320312 238.667969 188.152344 240.578125 C 168.703125 257.660156 151.863281 276.265625 138.113281 295.867188 C 137.089844 297.324219 135.464844 298.097656 133.816406 298.097656 Z M 133.816406 298.097656 " fill-opacity="1" fill-rule="nonzero"/><g clip-path="url(#a6344c2673)"><path fill="#fdfcdc" d="M 167.0625 514.628906 C 128.339844 552.699219 94.847656 599.835938 94.847656 599.835938 C 123.386719 573.730469 197.609375 563.167969 242.441406 559.078125 C 281.027344 574.570312 316.253906 580.941406 327.445312 582.964844 C 418.511719 599.433594 575.960938 587.335938 628.34375 476.828125 C 658.011719 414.25 644.597656 339.90625 613.578125 289.28125 C 544.183594 176.019531 368.238281 151.402344 251.804688 216.042969 C 183.695312 253.859375 98.007812 343.277344 119.347656 437.597656 C 126.597656 469.644531 144.53125 494.855469 167.0625 514.628906 Z M 167.0625 514.628906 " fill-opacity="1" fill-rule="nonzero"/></g><path fill="#ffe8b6" d="M 403.914062 396.640625 C 403.914062 383.425781 425.398438 374.390625 437.007812 357.015625 C 450.246094 337.203125 450.246094 290.972656 450.246094 290.972656 L 317.863281 290.972656 C 317.863281 290.972656 317.863281 337.203125 331.101562 357.015625 C 342.714844 374.390625 364.199219 383.425781 364.199219 396.640625 C 364.199219 409.855469 342.714844 418.890625 331.101562 436.265625 C 317.863281 456.078125 317.863281 502.308594 317.863281 502.308594 L 450.246094 502.308594 C 450.246094 502.308594 450.246094 456.078125 437.007812 436.265625 C 425.398438 418.890625 403.914062 409.855469 403.914062 396.640625 Z M 403.914062 396.640625 " fill-opacity="1" fill-rule="nonzero"/><path fill="#ffac33" d="M 403.90625 436.265625 C 397.292969 436.265625 390.292969 429.660156 390.292969 423.058594 C 390.675781 411.742188 390.675781 404.261719 390.675781 396.640625 C 390.675781 375.375 410.757812 366.519531 423.109375 350.410156 L 345.003906 350.410156 C 357.347656 366.519531 377.4375 375.375 377.4375 396.640625 C 377.4375 404.269531 377.4375 411.757812 377.820312 423.058594 C 377.820312 429.660156 370.816406 436.265625 364.199219 436.265625 C 350.960938 436.265625 340.402344 448.046875 337.722656 456.078125 C 331.101562 475.890625 331.101562 502.308594 331.101562 502.308594 L 437.007812 502.308594 C 437.007812 502.308594 437.007812 475.890625 430.390625 456.078125 C 427.710938 448.046875 417.144531 436.265625 403.90625 436.265625 Z M 403.90625 436.265625 " fill-opacity="1" fill-rule="nonzero"/><g clip-path="url(#9ccfd91b8c)"><path fill="#3b88c3" d="M 463.484375 502.308594 C 463.484375 509.597656 457.554688 515.515625 450.246094 515.515625 L 317.863281 515.515625 C 310.558594 515.515625 304.625 509.597656 304.625 502.308594 C 304.625 495.015625 310.558594 489.097656 317.863281 489.097656 L 450.246094 489.097656 C 457.554688 489.097656 463.484375 495.015625 463.484375 502.308594 Z M 463.484375 290.972656 C 463.484375 298.265625 457.554688 304.183594 450.246094 304.183594 L 317.863281 304.183594 C 310.558594 304.183594 304.625 298.265625 304.625 290.972656 C 304.625 283.683594 310.558594 277.765625 317.863281 277.765625 L 450.246094 277.765625 C 457.554688 277.765625 463.484375 283.683594 463.484375 290.972656 Z M 463.484375 290.972656 " fill-opacity="1" fill-rule="nonzero"/></g></svg>